#!OML:ASF F:\VICON\USERDATA\INSTALL\rory3\rory3.ASF
:FULLY-SPECIFIED
:DEGREES
354
root -9.4399 15.1678 11.9646 23.375 23.9061 12.5652
lowerback 28.8983 0.964716 -1.55182
upperback 6.64841 1.07235 1.18372
thorax -8.5182 0.610889 1.83494
lowerneck -18.1379 -10.1993 -8.24874
upperneck 2.65082 -12.4759 8.21769
head 4.68469 -5.79536 2.63141
rclavicle -6.36111e-015 -7.95139e-015
rhumerus -12.9684 -31.8697 -55.4493
rradius 71.6873
rwrist 27.8979
rhand -34.488 -10.9984
rfingers 7.12502
rthumb -7.65056 -40.8401
lclavicle -6.36111e-015 -7.95139e-015
lhumerus -42.2517 29.1904 54.5978
lradius 64.2365
lwrist -4.17481
lhand -30.6346 42.5491
lfingers 7.12502
lthumb -3.93027 72.4926
rfemur -73.0771 -13.3397 16.1404
rtibia 84.8211
rfoot -15.6179 -0.715007
rtoes 2.72996
lfemur -21.6964 -21.4417 -10.1449
ltibia 57.1774
lfoot -7.0387 -16.4201
ltoes -36.4204
355
root -9.4336 15.216 12.0234 23.393 23.5744 12.5144
lowerback 28.8499 0.841684 -1.3689
upperback 6.52212 0.9591 1.13124
thorax -8.62944 0.553815 1.71035
lowerneck -18.1299 -10.0518 -8.16404
upperneck 2.75692 -12.283 7.99799
head 4.68085 -5.7115 2.57306
rclavicle -2.8625e-014 -1.43125e-014
rhumerus -13.328 -31.6703 -55.4756
rradius 71.8492
rwrist 27.624
rhand -34.2385 -10.7027
rfingers 7.12502
rthumb -7.40975 -40.553
lclavicle -2.8625e-014 -1.43125e-014
lhumerus -42.1916 29.1596 54.5189
lradius 64.1863
lwrist -4.19919
lhand -30.3964 42.815
lfingers 7.12502
lthumb -3.70023 72.7626
rfemur -72.5852 -13.0911 16.0803
rtibia 84.3679
rfoot -15.9012 -0.514034
rtoes 3.19205
lfemur -21.8229 -21.1583 -10.2685
ltibia 57.3996
lfoot -5.67644 -16.7316
ltoes -35.7475
356
root -9.42957 15.2665 12.0877 23.3323 23.2723 12.3709
lowerback 28.841 0.737045 -1.12555
upperback 6.38052 0.886612 1.08526
thorax -8.77915 0.514445 1.54366
lowerneck -17.9708 -9.91097 -8.02789
upperneck 2.74725 -12.1214 7.83854
head 4.62251 -5.6441 2.5299
rclavicle -3.49861e-014 4.92986e-014
rhumerus -13.8064 -31.609 -55.5476
rradius 71.9511
rwrist 27.8649
rhand -34.3037 -10.5676
rfingers 7.12502
rthumb -7.47275 -40.4156
lclavicle -3.49861e-014 4.92986e-014
lhumerus -42.1463 29.1284 54.3183
lradius 63.9862
lwrist -4.30658
lhand -30.4386 42.0985
lfingers 7.12502
lthumb -3.741 72.0454
rfemur -71.992 -12.7899 16.1121
rtibia 83.8824
rfoot -16.1033 -0.329523
rtoes 3.01239
lfemur -22.0783 -20.7341 -10.2895
ltibia 57.7796
lfoot -4.15219 -17.2059
ltoes -35.4205
357
root -9.42919 15.3104 12.1487 23.3478 22.8912 12.2283
lowerback 28.7034 0.674018 -1.02123
upperback 6.26575 0.832485 1.08639
thorax -8.83852 0.48566 1.50432
lowerneck -17.8817 -9.6898 -7.526
upperneck 2.63094 -11.8767 7.19509
head 4.48042 -5.55988 2.29487
rclavicle 9.54166e-015 -1.11319e-014
rhumerus -14.2545 -31.4953 -55.6474
rradius 72.1764
rwrist 28.0662
rhand -34.4416 -10.6456
rfingers 7.12502
rthumb -7.60578 -40.4888
lclavicle 9.54166e-015 -1.11319e-014
lhumerus -42.1603 29.2306 54.208
lradius 63.9227
lwrist -4.43385
lhand -30.6686 41.4491
lfingers 7.12502
lthumb -3.96313 71.392
rfemur -71.5482 -12.4163 16.1465
rtibia 83.4061
rfoot -16.321 -0.14518
rtoes 2.82152
lfemur -22.5671 -20.2278 -10.3026
ltibia 58.263
lfoot -2.42498 -17.8545
ltoes -35.5326
358
root -9.43056 15.3473 12.2109 23.3528 22.5665 12.3379
lowerback 28.6221 0.61392 -1.12711
upperback 6.25479 0.725446 1.09324
thorax -8.80812 0.437135 1.61122
lowerneck -18.0137 -9.48573 -7.05865
upperneck 2.46893 -11.6296 6.53966
head 4.36141 -5.47066 2.0539
rclavicle -4.77083e-015 -1.11319e-014
rhumerus -14.5153 -31.64 -55.7199
rradius 72.0732
rwrist 29.0229
rhand -34.7431 -10.034
rfingers 7.12502
rthumb -7.89686 -39.8665
lclavicle -4.77083e-015 -1.11319e-014
lhumerus -42.0173 29.2789 54.3386
lradius 64.0451
lwrist -4.53157
lhand -30.5235 41.1849
lfingers 7.12502
lthumb -3.823 71.1303
rfemur -71.0383 -12.1934 15.9587
rtibia 82.9914
rfoot -16.5337 -0.0137378
rtoes 2.91352
lfemur -22.971 -19.8466 -10.5585
ltibia 58.7577
lfoot -0.447336 -18.4626
ltoes -33.6326
359
root -9.43728 15.4004 12.2898 22.8433 22.8415 12.5771
lowerback 29.1677 0.327535 -1.00702
upperback 6.33651 0.410491 1.17568
thorax -8.97171 0.292264 1.74602
lowerneck -18.0755 -9.46351 -7.15924
upperneck 2.48501 -11.5681 6.47222
head 4.37254 -5.44413 2.05235
rclavicle 7.95139e-015 -7.95139e-015
rhumerus -14.5993 -31.7013 -55.6547
rradius 71.5838
rwrist 30.0695
rhand -35.235 -9.73374
rfingers 7.12502
rthumb -8.37154 -39.5478
lclavicle 7.95139e-015 -7.95139e-015
lhumerus -41.9669 29.1486 54.5186
lradius 64.3309
lwrist -4.62002
lhand -30.1407 41.2713
lfingers 7.12502
lthumb -3.45332 71.2231
rfemur -69.617 -12.4813 15.7547
rtibia 82.5715
rfoot -16.9677 0.0542117
rtoes 3.16432
lfemur -22.8055 -19.9604 -10.8223
ltibia 59.212
lfoot 2.01429 -19.0146
ltoes -29.7178
360
root -9.4468 15.4607 12.3722 22.0695 23.187 12.6676
lowerback 29.9652 0.024032 -0.810636
upperback 6.43939 0.104279 1.28611
thorax -9.23245 0.152282 1.87122
lowerneck -18.1258 -9.43549 -7.23426
upperneck 2.53946 -11.5096 6.43506
head 4.39492 -5.41686 2.05542
rclavicle 4.29375e-014 2.38542e-014
rhumerus -14.7154 -31.6862 -55.7802
rradius 71.5842
rwrist 30.2259
rhand -35.1591 -10.1153
rfingers 7.12502
rthumb -8.29833 -39.9323
lclavicle 4.29375e-014 2.38542e-014
lhumerus -41.8702 29.0261 54.6138
lradius 64.4779
lwrist -4.54529
lhand -30.1897 41.8118
lfingers 7.12502
lthumb -3.50067 71.7628
rfemur -67.8478 -12.675 15.6744
rtibia 82.096
rfoot -17.4163 -0.0688333
rtoes 3.39591
lfemur -22.4168 -20.0776 -10.996
ltibia 59.7269
lfoot 4.43203 -19.5003
ltoes -27.4552
361
root -9.44897 15.51 12.4389 21.717 22.9202 12.5463
lowerback 30.1338 -0.0573507 -0.814041
upperback 6.48303 0.00974884 1.36693
thorax -9.26077 0.109403 2.00058
lowerneck -18.4716 -9.30451 -7.22372
upperneck 2.85934 -11.3049 6.21046
head 4.51854 -5.31914 1.9881
rclavicle -1.59028e-015 4.45278e-014
rhumerus -14.7956 -31.4689 -55.9392
rradius 71.9455
rwrist 29.5181
rhand -34.9078 -10.7682
rfingers 7.12502
rthumb -8.0558 -40.5946
lclavicle -1.59028e-015 4.45278e-014
lhumerus -41.747 29.3629 54.6146
lradius 64.3957
lwrist -4.78608
lhand -30.2032 42.0691
lfingers 7.12502
lthumb -3.51367 72.0199
rfemur -66.9036 -12.3827 15.7122
rtibia 81.5986
rfoot -17.5875 -0.0656683
rtoes 3.54602
lfemur -22.6312 -19.5809 -11.1298
ltibia 60.5017
lfoot 6.30062 -19.886
ltoes -27.7761
362
root -9.44406 15.5508 12.4906 21.7749 22.409 12.1744
lowerback 29.6887 -0.0294124 -0.6554
upperback 6.4417 0.0935021 1.44313
thorax -9.09509 0.140856 1.96053
lowerneck -18.5334 -9.14812 -7.09743
upperneck 2.9247 -11.1031 5.99838
head 4.5155 -5.2294 1.92355
rclavicle -2.54444e-014 -3.18055e-014
rhumerus -14.7753 -31.4661 -56.0438
rradius 72.0644
rwrist 28.8023
rhand -34.7193 -10.8264
rfingers 7.12502
rthumb -7.87385 -40.6597
lclavicle -2.54444e-014 -3.18055e-014
lhumerus -41.4891 29.3869 54.7818
lradius 64.3654
lwrist -4.95394
lhand -30.3418 41.8
lfingers 7.12502
lthumb -3.64751 71.7485
rfemur -66.7156 -11.8901 16.0317
rtibia 81.0798
rfoot -17.6183 -0.00697161
rtoes 3.51119
lfemur -23.6216 -18.7283 -10.992
ltibia 61.6061
lfoot 8.18361 -20.0131
ltoes -27.3823
363
root -9.45014 15.5867 12.547 22.1346 21.6759 11.9166
lowerback 28.8155 0.172205 -0.909267
upperback 6.40069 0.272642 1.52191
thorax -8.72194 0.222633 2.12582
lowerneck -18.3137 -8.99096 -6.99742
upperneck 2.75063 -10.916 5.9019
head 4.40569 -5.14773 1.91177
rclavicle 2.38542e-014 -4.29375e-014
rhumerus -14.8024 -31.6532 -56.1249
rradius 72.0237
rwrist 28.8519
rhand -34.6926 -10.0973
rfingers 7.12502
rthumb -7.8481 -39.9317
lclavicle 2.38542e-014 -4.29375e-014
lhumerus -41.1642 29.1834 55.1609
lradius 64.6122
lwrist -4.89885
lhand -30.5461 41.7298
lfingers 7.12502
lthumb -3.8448 71.6749
rfemur -66.9494 -11.1547 16.2347
rtibia 80.5691
rfoot -17.4149 -0.0208841
rtoes 3.31668
lfemur -25.0573 -17.6341 -10.9272
ltibia 62.9183
lfoot 10.2286 -20.0586
ltoes -26.5889
364
root -9.43454 15.6274 12.5833 22.1656 20.9948 11.862
lowerback 28.6237 0.231253 -0.860815
upperback 6.3508 0.348853 1.45926
thorax -8.68709 0.254225 2.00003
lowerneck -18.0077 -8.8599 -7.06032
upperneck 2.52434 -10.7447 5.95658
head 4.28585 -5.0685 1.97221
rclavicle -4.77083e-015 -1.59028e-015
rhumerus -14.9457 -31.8769 -56.1078
rradius 71.9207
rwrist 29.3141
rhand -34.8642 -9.88965
rfingers 7.12502
rthumb -8.01372 -39.7177
lclavicle -4.77083e-015 -1.59028e-015
lhumerus -40.8274 28.9476 55.5457
lradius 64.8409
lwrist -4.88171
lhand -30.7862 42.3214
lfingers 7.12502
lthumb -4.07667 72.2621
rfemur -66.7229 -10.789 16.1266
rtibia 80.0333
rfoot -17.2307 0.303757
rtoes 3.39333
lfemur -26.2835 -16.8278 -11.3582
ltibia 64.4577
lfoot 12.2819 -20.089
ltoes -24.7531
